<svg width="340" height="150" viewBox="0 0 340 150" fill="none" xmlns="http://www.w3.org/2000/svg">
  <g clip-path="url(#a)">
    <path d="M14.47 69.603c.153.87.644 1.425 1.643 1.682.455.075.78.112 1.106.113q7.115.005 14.231.003c.7.26.763.883.565 1.4-.108.281-.673.545-1.033.548-5.096.037-10.192.019-15.288.035-1.672.005-3.366-1.931-3.363-3.45.022-9.262.01-18.525.03-27.787.002-.305.166-.684.381-.903q4.197-4.26 8.448-8.464a1.56 1.56 0 0 1 .99-.415c5.455-.025 10.91-.017 16.366-.018 1.985 0 3.275.87 4.031 2.851.054.278.106.427.158.577 0 0 .018.073.012.159a.5.5 0 0 1-.066.244c-.062.24-.1.416-.1.593q-.006 16.033.003 32.065c0 .258.093.516.152.816.01.043.015.131.015.131s-.006.084-.04.146a.4.4 0 0 0 .02.22c-.13 1.729-2.158 3.344-3.541 3.247-.954-.067-1.917-.031-2.875-.014-.782.014-1.07-.49-1.084-1.122-.016-.638.395-.884 1.06-.875.853.011 1.713-.06 2.56-.175.806-.108 1.411-.536 1.734-1.463.139-.317.193-.552.193-.787q.01-16.086-.002-32.173c0-.283-.115-.565-.177-.848-.5-.471-.999-.943-1.618-1.487-.207-.09-.295-.124-.382-.124-4.875-.005-9.75-.01-14.624-.001-.219 0-.438.124-.657.19 0 0 .003-.02-.042.032a84 84 0 0 0-.13 4.243c-.002.613.093 1.226.145 1.84-.293 1.774-1.32 2.698-3.405 2.68q-2.672-.026-5.344.058c-.166.263-.219.468-.219.672q-.008 12.395.003 24.789c0 .257.094.514.144.772M17.1 40.08l-.977 1.092c1.38 0 2.509-.028 3.636.009.869.028 1.311-.51 1.374-1.204.109-1.2.03-2.415.03-3.624l-.209-.109z" fill="#5572F8"/>
    <path d="M91.58 70.9c-.934.937-1.826 1.826-2.714 2.72-1.595 1.603-4.36 1.621-5.963.026-1.615-1.607-3.223-3.223-4.833-4.836-.126-.126-.349-.258-.349-.388 0-.522-.122-1.222.159-1.522.353-.377 1.011-.328 1.499.17a386 386 0 0 0 4.58 4.58c.213.21.486.358.883.645-.056-.906-.066-1.6-.147-2.286-.464-3.967-1.442-7.774-3.39-11.307a27.3 27.3 0 0 0-6.192-7.623c-3.957-3.395-8.57-5.373-13.588-6.452a29.2 29.2 0 0 0-8.604-.556c-1.983.169-3.944.624-5.906 1-1.111.212-2.007-.41-1.68-1.33.142-.402.686-.854 1.11-.929 2.116-.373 4.244-.74 6.383-.899 2.769-.205 5.522.002 8.284.46 3.502.58 6.79 1.7 9.916 3.308a29.8 29.8 0 0 1 6.191 4.256c3.2 2.846 5.574 6.256 7.281 10.135a27.6 27.6 0 0 1 2.18 7.898c.155 1.307.323 2.613.5 4.037.238-.213.455-.39.652-.587 1.423-1.418 2.84-2.843 4.264-4.26.596-.593 1.372-.63 1.866-.081.574.64.314 1.166-.234 1.681-.72.678-1.404 1.394-2.148 2.14m-55.476 29.304c3.82 2.915 8.035 4.801 12.718 5.56 2.183.354 4.4.658 6.605.689 1.746.025 3.502-.376 5.247-.633.95-.141 1.883-.387 2.827-.565.585-.11 1.481.407 1.559.929.107.719-.28 1.101-.971 1.229-1.555.289-3.099.663-4.665.863-1.644.21-3.312.397-4.962.345-3.095-.096-6.164-.475-9.144-1.408-3.234-1.013-6.286-2.38-9.12-4.26-3.93-2.607-6.938-6.015-9.211-10.134-1.635-2.96-2.587-6.146-3.27-9.415-.334-1.603-.39-3.263-.594-5.106-1.712 1.724-3.314 3.326-4.9 4.943-.425.433-.839.683-1.473.403-.751-.333-.867-1.135-.285-1.72 1.842-1.85 3.612-3.775 5.486-5.592.91-.88 2.159-1.026 3.326-.685.772.225 1.545.692 2.136 1.244 1.688 1.573 3.292 3.238 4.912 4.883.772.783.686 1.535-.158 1.93-.518.244-.88.085-1.259-.3-1.742-1.775-3.506-3.528-5.435-5.463.071 1.24.055 2.288.209 3.31.23 1.53.474 3.072.898 4.557 1.067 3.732 2.62 7.251 5.243 10.176 1.324 1.476 2.806 2.812 4.281 4.22" fill="#5773F5"/>
    <path d="M75.696 78.222a1.1 1.1 0 0 1 .38-.319c.63.06 1.137.125 1.708.197-.047-.423-.075-.681-.02-.94 5.428 0 10.772.002 16.129.066.375.436.745.857.894-.081.03.006.06.013.177.072.24.074.392.095.543.115 0 0-.007.008.006.066.487.314.961.57 1.436.826 0 0-.007.008.01.045.042.088.079.126.128.153 0 0 .017.087.047.169.068.131.117.164.176.18 0 0-.01.007.008.042a.33.33 0 0 0 .131.15s.022.082.022.13c0 .049-.016.066-.084.064-.179.308-.415.636-.374.926.096.689.31 1.362.506 2.033.032.11.206.177.316.349.002 8.823.027 17.562-.014 26.3-.01 2.125.338 4.282-.394 6.383-.078.183-.103.356-.173.531a2 2 0 0 0-.197.009c-.442.063-.82.117-1.188.098.064-.624.118-1.175.171-1.811.004-3.268.007-6.453.035-9.655.057-.078.04-.125-.03-.243-.001-2.428 0-4.772.068-7.117.244-.098.418-.196.593-.294-.22-.082-.44-.164-.661-.33-.002-.928-.001-1.772.06-2.624.754-.402.405-.655-.061-.973 0-.567.001-1.053.062-1.553.403-.312.393-.548-.061-.775.057-.383.114-.697.24-1.014.2-.189.33-.375.46-.56a3 3 0 0 1-.539-.413c-.062-.455-.157-.835-.16-1.216-.016-2.388-.012-4.775.026-7.204-.045-.301-.138-.56-.214-.823-.201-.697-.448-.748-1.14-.218-.139-.001-.218-.003-.308-.07-.361-.878-.97-.261-1.42-.266-4.13-.046-8.261-.01-12.392-.052-.441-.005-.876-.367-1.32-.548-.218-.089-.619-.248-.648-.2-.406.668-.99 1.336-1.08 2.06-.171 1.356-.058 2.748-.04 4.125.002.217.073.584.195.622.629.199.388.641.227.92-.219.375-.24.888-.98.952-.45.04-.836.81-1.323 1.254a3.5 3.5 0 0 1-.708-.049c-1.621-.089-3.183-.134-4.745-.18l-.005-.37c.359-.034.719-.06 1.076-.106.54-.069 1.129-.096 1.111-.9.447.003.814.004 1.193.073.835.898 2.749.515 3.18-.574.018-.047-.086-.142-.133-.3 0-.59.02-1.097-.002-1.602a90 90 0 0 0-.184-3.02c-.049-.064-.078-.1-.16-.118a.5.5 0 0 0-.17.218.3.3 0 0 1-.022.149c-.129.14-.239.23-.39.34a.6.6 0 0 0-.162.211c-.047.097-.096.126-.221.127h-.38c-.57.322-1.067.642-1.48.909l-1.331-.734c.44-.463.88-.926 1.441-1.413a2.8 2.8 0 0 0 .54-.578c.005-.061.033-.109.194-.153a2.8 2.8 0 0 0 .528-.563c.004-.063.032-.11.19-.155.246-.07.39-.13.585-.164l.546.27.147-.203a5.5 5.5 0 0 1-.557-.505zm-.914 2.137-.055-.003s.073.044.077.17l.304.398.203-.23c-.17-.098-.34-.196-.529-.335" fill="#5271FD"/>
    <path d="M72.28 86.155c.096.804-.492.831-1.033.9-.357.047-.717.072-1.076.106l.005.37c1.562.046 3.124.091 4.661.188-1.371.053-2.719.042-4.065.065-.34.006-.676.123-1.014.19 0 0 0-.019-.051.029-.078.253-.127.459-.127.665q-.007 12.496.004 24.991c0 .259.091.518.14.776.442 1.141.85 1.433 2.038 1.433 4.704.001 9.409-.01 14.113.015.368.002.827.156 1.077.406.247.247.48.801.361 1.048-.152.316-.66.647-1.019.65-5.213.043-10.427.033-15.64.034-.09 0-.178-.025-.338-.159a6.6 6.6 0 0 0-1.11-.548s.016-.008.006-.067c-.308-.319-.606-.578-.903-.837 0 0 .01-.009.009-.069a3.4 3.4 0 0 0-.369-.475s.01-.006.01-.081c-.059-2.045-.162-4.014-.17-5.985-.022-6.02-.048-12.04.014-18.06.022-2.048-.454-4.16.514-6.137.004-.062.031-.109.192-.154.25-.196.39-.38.53-.562.498-.521.996-1.042 1.618-1.587.262-.209.4-.394.54-.578.004-.061.032-.108.192-.153.249-.197.388-.381.528-.565.005-.065.036-.114.135-.158.482.23.921.472 1.375.722.413-.266.91-.587 1.48-.846a.5.5 0 0 1 .053.364c-.485.495-.947.935-1.467 1.382-.142.125-.225.243-.31.357-.003-.005.006 0-.052.007-.141.124-.224.24-.308.353-.002-.005.007-.001-.034.019a.6.6 0 0 0-.159.21c-.046.096-.094.124-.2.148a.7.7 0 0 0-.168.222 2.8 2.8 0 0 1-.577.475 4 4 0 0 0-.535.374c.15.115.287.263.456.338.21.093.448.125.673.184" fill="#5471FA"/>
    <path d="M16.264 53.755c-.164-.41-.473-.833-.441-1.227.022-.267.492-.632.818-.708.513-.12 1.073-.032 1.613-.032 6.57 0 13.14-.01 19.709.024.398.003.897.253 1.168.552.393.431.294.971-.312 1.392-7.623-.002-15.089-.002-22.556-.001M71.54 98.546c-.686-.396-.648-1.098-.432-1.629.114-.28.785-.466 1.206-.468 6.848-.028 13.696-.023 20.544-.014.315 0 .65.043.94.16.91.362 1.044.966.28 1.771-7.263.03-14.381.03-21.499.04-.346 0-.693.091-1.04.14" fill="#5472F9"/>
    <path d="M93.933 90.313c.056-.006.096.016.145.148a.6.6 0 0 0 .176.192s-.014.005-.013.075c-.036 1.149-.274 1.37-1.44 1.37-6.555.003-13.11 0-19.665.008-.347 0-.694.094-1.103.15l-.304.023s.008.009 0-.053c-.114-.452-.429-1.043-.285-1.193.297-.309.837-.39 1.282-.548.107-.038.238-.005.358-.005 6.467 0 12.935.002 19.402-.007.347 0 .694-.095 1.108-.15.158-.007.249-.008.339-.01m-77.82-31.892c.005-.063.034-.111.2-.149.434-.058.755-.112 1.134-.122.145.065.232.102.32.102q10.56.028 21.122.05s.036.019.011.103c-.052.598-.08 1.111-.106 1.624-.076.008-.152.016-.33.02a.5.5 0 0 1-.252-.067 8 8 0 0 0-1.135-.1q-9.717-.003-19.433-.002c-1.375 0-1.505-.125-1.532-1.46" fill="#5371FD"/>
    <path d="M38.636 45.834c.785.089.444.7.44 1.204-.5.198-.922.406-1.344.407-6.666.02-13.332.015-19.999.014-.209 0-.421.01-.626-.022-.97-.153-1.129-.44-.727-1.413.607-.065 1.139-.176 1.67-.178 6.862-.013 13.724-.01 20.586-.012" fill="#5271FD"/>
    <path d="M71.91 104.699s-.076-.005-.127-.073c-.222-.209-.393-.348-.568-.556.02-.858.467-1.171 1.212-1.171 6.86.002 13.72-.009 20.58.028.402.002.801.381 1.201.585-.23.337-.459.674-.773 1.01-6.85-.002-13.615-.004-20.381.003-.317.001-.635.094-1 .154a2 2 0 0 1-.143.02" fill="#5371FD"/>
    <path d="M75.7 87.758c.416-.442.802-1.212 1.252-1.252.74-.064.761-.577.98-.953.161-.278.402-.72-.227-.919-.122-.038-.193-.405-.196-.622-.017-1.377-.13-2.769.04-4.124.092-.725.675-1.394 1.08-2.06.03-.049.431.11.649.199.444.181.879.543 1.32.548 4.13.042 8.261.006 12.391.052.452.005 1.06-.612 1.374.268-.067.07-.098.073-.213.073-4.903-.005-9.722-.01-14.541-.002-.287 0-.573.098-.86.15 0 0-.063.025-.16.07a29 29 0 0 0-.185 3.341c.003.793.093 1.586.143 2.379-.005 1.222-.822 2.383-1.96 2.783-.243.086-.486.17-.802.205a.2.2 0 0 1-.084-.137m2.16-6.54v2.826l.243-.019V79.47l-.243-.003z" fill="#5471FA"/>
    <path d="M97.48 115.14c.678-2.093.331-4.25.34-6.375.042-8.738.017-17.477.017-26.382a175 175 0 0 0-.382-3.224s.016-.017.026-.024c.186.593.514 1.192.516 1.793.032 11.115.023 22.231.029 33.346 0 1.216-.544 2.143-1.504 2.912-.091-.025-.11-.049-.118-.135.246-.498.481-.934.717-1.37 0 0 .089-.002.178-.041.12-.193.15-.347.18-.5" fill="#5974F2"/>
    <path d="M96.05 104.337c-.003 3.185-.006 6.37-.047 9.639-.037.086-.111.089-.111.089-.01-4.675-.027-9.35-.03-14.024-.006-6.024.01-12.048-.018-18.071-.003-.657-.233-1.312-.305-2.038.199-.009.346.052.493.113.002 2.388-.002 4.775.014 7.163.003.381.098.762.115 1.26-.005.39.024.661.055.933-.057.314-.114.627-.173 1.082 0 .333.001.525.003.717l-.004 1.614.002.906-.001 2.683.002 7.718c.001.129.006.216.006.216" fill="#6E85E8"/>
    <path d="M40.603 36.024c.058.198.173.48.173.763q.01 16.087.002 32.173c0 .235-.054.47-.135.759-.046-11.168-.041-22.39-.04-33.695" fill="#93A4E8"/>
    <path d="M42.723 36.116c.006-.032.013-.063.023-.144.067.156.186.36.186.565.01 10.975.008 21.95.006 32.926a.46.46 0 0 1-.111.293c-.076.027-.081-.06-.078-.189.005-9.739.01-19.35.009-28.962 0-1.496-.023-2.992-.035-4.489" fill="#DEECFF"/>
    <path d="M68.262 85.626c-.913 1.954-.437 4.066-.459 6.115-.062 6.019-.036 12.039-.013 18.059.007 1.971.11 3.941.167 5.99-.122-.229-.241-.537-.35-.998.007-9.537.004-18.92 0-28.304.2-.28.4-.56.654-.862" fill="#5D74E1"/>
    <path d="m93.52 104.523.689-1.011c-.4-.204-.8-.583-1.201-.585-6.86-.037-13.72-.026-20.58-.028-.746 0-1.194.313-1.255 1.178-.04.075-.124.081-.124.081-.225-.56-.073-1.016.52-1.412 7.543-.02 14.942-.02 22.342-.021.948.817.924 1.606-.177 1.97-.15-.014-.182-.022-.213-.066z" fill="#5A73E4"/>
    <path d="M67.535 86.525c.076 9.346.08 18.73.079 28.201-.068-.119-.187-.325-.188-.53-.009-9.094-.007-18.187-.005-27.28a.76.76 0 0 1 .114-.391" fill="#C6D3FF"/>
    <path d="M16.304 46.03c-.326.967-.166 1.254.803 1.407.205.032.417.022.626.022 6.666.001 13.333.007 20-.014.421-.001.842-.209 1.33-.333-.05.168-.168.35-.434.523-7.495-.006-14.84-.005-22.185-.005-.854-.395-.978-1.157-.218-1.744.075.077.076.11.078.143" fill="#5C73E5"/>
    <path d="M69.738 114.35c-.063-.173-.154-.432-.154-.691q-.011-12.495-.004-24.991c0-.206.05-.412.136-.666.054 8.363.05 16.774.044 25.185q0 .582-.022 1.163" fill="#A6B8F6"/>
    <path d="M14.483 69.519c-.063-.174-.157-.43-.157-.688q-.01-12.394-.003-24.789c0-.204.053-.409.135-.666.049 8.651.043 17.355.025 26.143" fill="#8299F5"/>
    <path d="M93.527 90.327c-.347.05-.694.146-1.041.146-6.468.009-12.935.007-19.402.007-.12 0-.251-.032-.358.005-.445.157-.985.24-1.282.548-.144.15.17.74.28 1.195-.938-.387-1.043-1.062-.156-1.9 7.415-.014 14.687-.007 21.96 0" fill="#5C73E5"/>
    <path d="M16.04 58.432c.1 1.323.229 1.447 1.604 1.447q9.716 0 19.433.004c.357 0 .714.038 1.05.113-7.174.058-14.325.061-21.476.065-.863-.147-1.116-.746-.61-1.629" fill="#5D74E1"/>
    <path d="M72.094 92.25c.347-.05.695-.143 1.042-.144 6.555-.008 13.11-.005 19.665-.007 1.166 0 1.404-.222 1.446-1.376.726.569.316 1.072-.353 1.557-1.98-.002-3.806.003-5.633 0q-8.084-.013-16.167-.03" fill="#5C73E5"/>
    <path d="M95.872 114.111c.02-.047.094-.049.13-.05a12 12 0 0 1-.178 1.746.8.8 0 0 1-.408.232l-3.401.006c-.42.255-.774.51-1.127.764.277.284.555.567.899.88a31 31 0 0 0 1.63.148c.682-.127 1.29-.242 1.89-.387.368-.088.724-.223 1.086-.337.019.024.038.048.081.112-.706.293-1.419.661-2.169.768-.88.126-1.793.007-2.69.025-.736.015-1.11-.333-1.147-1.048-.04-.772.47-1.051 1.115-1.091.776-.049 1.57.073 2.331-.043.63-.096 1.489-.009 1.727-1.045.089-.164.077-.273.066-.383.048-.083.097-.166.165-.297" fill="#5974F2"/>
    <path d="M16.38 46.024c-.078-.028-.08-.061-.083-.144.03-.1.061-.15.22-.208 7.443-.006 14.757-.003 22.071 0 0 0 .026.08.037.12-6.85.044-13.713.041-20.575.054-.531.002-1.063.113-1.67.178" fill="#5D74E1"/>
    <path d="M17.389 58.106c-.32.054-.642.108-1.033.154.171-.125.413-.345.655-.345 7.13-.018 14.258-.013 21.387-.01.058 0 .116.023.126.107-7.077.08-14.106.087-21.135.094" fill="#A7B7FF"/>
    <path d="M71.626 98.562c.261-.065.608-.156.954-.156 7.118-.01 14.236-.01 21.442-.011-.185.063-.46.177-.733.177-7.193.01-14.385.007-21.663-.01" fill="#8193F0"/>
    <path d="M16.307 53.823c7.423-.068 14.89-.069 22.444-.067-.126.062-.338.174-.551.174-7.135.01-14.27.008-21.406.006-.147 0-.295-.029-.487-.113" fill="#7D94F2"/>
    <path d="M93.874 102.653c-7.362.073-14.762.073-22.248.071.124-.063.333-.176.542-.176 7.135-.009 14.27-.008 21.404-.006a.5.5 0 0 1 .302.111" fill="#A7B7FF"/>
    <path d="M93.595 90.323c-7.34-.002-14.612-.009-21.97-.019.124-.063.334-.175.543-.175 7.11-.01 14.22-.009 21.33-.007.117 0 .235.03.394.119-.05.074-.14.075-.297.082" fill="#ABB7F3"/>
    <path d="M16.48 47.704c7.31-.074 14.654-.075 22.086-.072-.12.065-.328.18-.535.18-7.084.01-14.167.01-21.25.009-.088 0-.176-.029-.3-.117m55.552 44.552c5.45.004 10.84.016 16.228.024 1.827.003 3.653-.002 5.567-.004-.124.06-.335.177-.546.177-7.105.01-14.21.008-21.314.007-.059 0-.118-.022-.208-.107.05-.08.132-.086.273-.097" fill="#A7B7FF"/>
    <path d="M38.575 45.592c-7.301.076-14.615.074-22.013.068.121-.061.328-.172.534-.172 7.066-.01 14.133-.008 21.2-.007.088 0 .177.02.279.111" fill="#D2DAFF"/>
    <path d="M17.447 58.15c6.97-.051 14-.058 21.115-.066a.65.65 0 0 1 .304.181c-7.018.022-14.059.006-21.1-.013-.086 0-.174-.037-.319-.102" fill="#5A73E4"/>
    <path d="M16.683 60.134c7.119-.077 14.27-.08 21.506-.097.086-.014.172.009.217.013-.16.066-.366.182-.572.182-6.95.01-13.9.007-20.851.005a.5.5 0 0 1-.3-.103m76.838 44.531c.031.008.063.016.143.032-.162.066-.371.175-.58.176q-10.376.01-20.75.005a.75.75 0 0 1-.39-.107c-.001-.075.03-.079.194-.08 3.3.005 6.468.014 9.637.01 3.915-.006 7.83-.024 11.746-.036M77.127 76.981c.118-.06.236-.172.354-.172 5.688.002 11.375.014 17.049.103-.046.084-.077.09-.192.085-5.668-.002-11.252.007-16.898.008a7 7 0 0 0-.313-.024" fill="#D2DAFF"/>
    <path d="M23.403 34.51c.134-.059.353-.182.572-.183 4.875-.009 9.75-.004 14.624 0 .087 0 .175.035.323.098-5.105.055-10.27.066-15.52.086" fill="#7D94F2"/>
    <path d="M78.834 79.127c.202-.063.488-.16.775-.16 4.819-.008 9.638-.004 14.542.035.085.037.085.105.085.105-5.105.01-10.211.02-15.402.02M31.41 71.331c-4.704.07-9.447.071-14.19.067-.326 0-.652-.038-1.04-.1a686 686 0 0 1 15.23.033" fill="#8193F0"/>
    <path d="M96.072 80.004c-.187-.02-.334-.08-.542-.145a2.2 2.2 0 0 1-.566-.523 4 4 0 0 0-.186-.372c.632-.531.879-.48 1.08.217.076.263.169.522.214.823M77.13 76.976c.08.01.164.014.333.06.123.078.167.106.217.124l.104.94c-.57-.072-1.078-.136-1.658-.213.012-.12.097-.227.297-.352.31-.2.505-.383.7-.566 0 0 .01.003.007.007" fill="#5471FA"/>
    <path d="M23.305 40.547c-.066-.529-.16-1.142-.16-1.755a73 73 0 0 1 .142-4.241c.048 1.936.04 3.923.018 5.996" fill="#6E85E8"/>
    <path d="M75.629 87.76c.072-.002.083.083.09.126-1.927.053-3.86.063-5.877.08.254-.058.59-.176.93-.182 1.346-.023 2.694-.012 4.125-.021.276-.005.468-.002.732-.002" fill="#8193F0"/>
    <path d="M78.562 84.822c-.066-.709-.154-1.502-.157-2.295a39 39 0 0 1 .15-3.34c.049 1.82.036 3.685.007 5.635" fill="#8299F5"/>
    <path d="M38.86 60.023c-.04-.507-.012-1.02.048-1.599.78.494.43 1.044-.049 1.6" fill="#5A73E4"/>
    <path d="M96.929 78.165a9.4 9.4 0 0 1-1.413-.771c.458.196.926.454 1.413.771" fill="#5974F2"/>
    <path d="M94.422 77.008c.031-.006.062-.012.14-.023.113-.007.163.02.212.117-.136.981-.506.56-.823.122.188-.114.33-.165.471-.216" fill="#5471FA"/>
    <path d="M68.311 116.474q.443.292.894.778a5 5 0 0 1-.894-.778m.922.898q.48.127 1.037.427a4.8 4.8 0 0 1-1.037-.427m7.83-40.398q-.201.268-.591.543.2-.269.592-.543m-6.007 27.244c-.007-.06.078-.066.12-.072a2.7 2.7 0 0 1 .57.468 2.3 2.3 0 0 1-.69-.396m-2.072-19.312a1.9 1.9 0 0 1-.434.53c.081-.17.231-.34.434-.53" fill="#5D74E1"/>
    <path d="M94.719 78.964c.11.09.16.181.227.322-.187-.008-.389-.067-.65-.152-.06-.026-.06-.095-.06-.13.03-.036.06-.039.138-.043.126 0 .205 0 .345.003" fill="#6E85E8"/>
    <path d="M71.143 82.743a1.9 1.9 0 0 1-.431.533c.08-.17.229-.341.431-.533m.72-.72a1.9 1.9 0 0 1-.433.534c.081-.172.23-.342.433-.533m2.882-2.877a1.9 1.9 0 0 1-.433.531c.081-.17.23-.341.433-.531m-.72.717a1.9 1.9 0 0 1-.433.533c.08-.17.23-.342.432-.533m1.498-1.083a4 4 0 0 1-.492.179q.086-.214.366-.425c.068 0 .126.067.126.112zm-7.567 37.143c.116.08.239.219.357.421-.12-.078-.235-.22-.357-.421" fill="#5D74E1"/>
    <path d="M42.75 35.71c-.067-.085-.119-.234-.168-.445.062.086.122.233.167.445" fill="#5D74D3"/>
    <path d="M95.48 77.277c-.124.035-.276.014-.472-.045a.85.85 0 0 1 .471.045" fill="#5974F2"/>
    <path d="M75.65 78.236c.05.019.052.052.035.171-.06.135-.106.17-.163.195 0 0-.058-.066-.083-.102a.56.56 0 0 1 .211-.264" fill="#5D74E1"/>
    <path d="M95.69 114.468c.028.05.04.159.006.288-.037-.063-.03-.145-.006-.288" fill="#6E85E8"/>
    <path d="M97.1 78.374c-.062.022-.1-.017-.136-.106.041-.006.095.026.136.106" fill="#5974F2"/>
    <path d="M42.745 70.098c-.03-.002-.05-.055-.044-.128.035.012.046.045.044.128" fill="#5D74D3"/>
    <path d="M97.296 78.726c-.046.029-.094-.004-.152-.092q.05-.016.152.092m.163.189c-.059.02-.097-.018-.136-.106.04-.007.093.025.136.106" fill="#5974F2"/>
    <path d="M94.242 90.606q-.056.015-.155-.11.055-.013.154.11" fill="#5C73E5"/>
    <path d="M42.68 36.178c.055 1.435.078 2.931.078 4.427 0 9.612-.004 19.223-.02 28.92-.061-.173-.154-.431-.154-.689q-.009-16.032-.003-32.065c0-.177.038-.354.1-.593" fill="#5D74D3"/>
    <path d="M95.5 116.039c.09-.046.178-.093.312-.16a39 39 0 0 1 1.245-.191c-.172.429-.407.865-.653 1.363a5.6 5.6 0 0 1-1.096.399c-.601.145-1.209.26-1.893.319-.309-1.113-.319-1.057.682-.879.537.095 1.115-.039 1.754-.074z" fill="#5471FA"/>
    <path d="M94.338 76.997c-.057.062-.2.113-.4.165-5.402 0-10.746-.002-16.174-.003-.134-.017-.178-.045-.239-.114 5.56-.04 11.145-.05 16.813-.048m-22.652 8.262c0 .129-.063.257-.19.514 1.373 0 2.661.032 3.946-.026.264-.012.514-.36.848-.671.1-1.517.122-2.917.145-4.317.055.998.119 1.995.161 2.993.021.506.003 1.012-.055 1.63-.927.826-1.96.82-3.001.779l-1.182-.005c-.304-.06-.542-.092-.752-.186-.17-.074-.305-.222-.456-.337.157-.125.314-.25.535-.374" fill="#5D74E1"/>
    <path d="M73.551 86.228c1.03-.025 2.062-.02 2.99-.762.104.046.208.141.19.188-.431 1.09-2.345 1.472-3.18.574m23.836-7.071c.195 1.021.323 2.04.449 3.142-.11-.006-.285-.073-.317-.183-.195-.671-.41-1.344-.507-2.033-.04-.29.196-.618.375-.926" fill="#5471FA"/>
    <path d="M76.412 80.733c0 1.426-.022 2.826-.094 4.282-.067-1.297-.086-2.652-.171-4.046-.068-.04-.06-.105-.019-.16.086-.107.13-.16.176-.212.03.035.06.071.108.136" fill="#DEECFF"/>
    <path d="M96.285 89.398c-.1-.269-.13-.54-.115-.855.222.069.399.181.575.293-.13.186-.26.372-.46.561m-.18 4.315c-.062-.242-.063-.492-.062-.817.467.162.816.415.062.817m.008 3.248c-.069-.135-.07-.27-.068-.473.222.015.441.097.661.18-.174.097-.349.195-.593.293m-20.59-18.313c.055-.07.103-.105.165-.19.21.114.394.266.579.418l-.147.203c-.164-.081-.33-.162-.546-.27-.052-.027-.052-.117-.052-.161m20.583 12.539c-.061-.178-.063-.37-.063-.634.456.086.466.322.063.634M74.802 80.463c.168.035.339.133.51.232l-.204.23c-.101-.134-.203-.267-.306-.462m22.625 34.685c.022.145-.008.299-.084.491a.95.95 0 0 1 .084-.491" fill="#5471FA"/>
    <path d="M75.287 81.66c-.026.113-.114.225-.253.353-.053-.065-.054-.147-.056-.292.082-.062.165-.063.309-.062" fill="#5D74E1"/>
    <path d="M96.076 104.32c-.025.017-.03-.07-.029-.114.068-.011.085.036.029.114M74.79 80.38c.009.02-.064-.024-.064-.024s.055.003.064.023m1.462.234q.008.052-.131.163c-.005-.033.037-.09.13-.163" fill="#5471FA"/>
    <path d="M75.67 81.32q.015.054-.103.156-.015-.053.102-.155m-2.177 2.148c-.03.105-.117.216-.257.344.032-.1.115-.219.257-.344m-.362.364c-.03.103-.117.213-.255.34q.045-.152.255-.34m-.343.372q.016.052-.1.154-.014-.051.1-.154m-.358.358q.016.053-.102.156-.014-.053.102-.156m21.09 20.067c-3.914.048-7.83.066-11.745.072q-4.795.004-9.59-.02c.234-.062.552-.155.869-.156 6.766-.007 13.531-.005 20.381-.003.085.001.085.072.086.107" fill="#5D74E1"/>
    <path d="M77.86 81.13v-1.664l.243.003v4.556l-.243.02zm17.556 34.909c.168.185.251.369.435.777-.639.035-1.217.169-1.754.074-1-.178-.99-.234-.76.878a5.3 5.3 0 0 1-1.559-.144c.051-.589.177-1.084.303-1.579z" fill="#5271FD"/>
    <path d="M92.015 116.045c-.06.495-.186.99-.303 1.55a11 11 0 0 1-.824-.786c.353-.254.707-.509 1.127-.764" fill="#5471FA"/>
    <path d="M116.457 58.828q0-.54.504-.54h16.452q.432 0 .432.468l-.036 2.268q0 .54-.54.54h-11.916q-.54 0-.54.468v7.848q0 .432.468.432h9.036q.432 0 .432.432v2.376q0 .396-.432.396h-9.072q-.432 0-.432.432v10.476q0 .576-.648.576h-3.096q-.36 0-.504-.108-.108-.144-.108-.468zm25.212 25.488q0 .396-.18.54-.144.144-.576.144h-2.448q-.648 0-.648-.576l.072-25.596q0-.54.468-.54h2.844q.468 0 .468.54zm7.994-7.524q0 1.62.756 2.952a6.2 6.2 0 0 0 2.088 2.088q1.332.756 2.952.756 1.656 0 2.952-.684t2.376-2.124q.108-.144.216-.144.108-.036.324.072l1.836.864q.396.18.072.576-1.008 1.476-2.232 2.412a7.8 7.8 0 0 1-2.664 1.368q-1.476.432-3.276.432-2.736 0-4.824-1.224t-3.312-3.42q-1.188-2.196-1.188-5.04 0-3.132 1.224-5.364 1.224-2.268 3.312-3.492 2.124-1.26 4.716-1.26 2.664 0 4.644 1.188 2.016 1.152 3.132 3.348t1.116 5.328a2.1 2.1 0 0 1-.072.576q-.072.216-.468.216h-13.32q-.18 0-.288.18a.9.9 0 0 0-.072.396m9.828-2.844q.396 0 .504-.108t.108-.396a5.7 5.7 0 0 0-.612-2.592 4.84 4.84 0 0 0-1.692-1.98q-1.08-.756-2.7-.756-1.692 0-2.916.828a5.27 5.27 0 0 0-1.836 2.124 6.7 6.7 0 0 0-.612 2.844zm23.64 10.152q.36.504.288.72-.036.18-.468.18h-3.168q-.648 0-.9-.396l-4.644-6.444q-.216-.324-.36-.324-.108 0-.36.324l-4.824 6.444q-.252.396-.864.396h-2.088q-.432 0-.612-.216-.144-.252.288-.828l6.372-8.1q.18-.288.144-.468 0-.18-.18-.432l-6.12-8.316q-.18-.252-.072-.468.108-.252.468-.252h2.988q.36 0 .54.108.18.072.324.288l4.392 6.012q.288.432.54 0l4.248-6.012a.73.73 0 0 1 .324-.288q.18-.108.54-.108h2.304q.36 0 .396.18t-.108.432l-5.868 7.848q-.216.252-.216.468.036.18.216.432zm7.51.216q0 .396-.18.54-.144.144-.54.144h-2.448q-.396 0-.54-.108-.108-.144-.108-.468V66.46q0-.54.504-.54h2.88q.432 0 .432.504zm.108-22.212q0 .756-.72.756h-2.664q-.396 0-.54-.18-.108-.18-.108-.504V58.9q0-.612.54-.612h2.988q.504 0 .504.576zm16.094-4.176q1.908 0 3.6.612 1.728.576 3.096 1.62a9.2 9.2 0 0 1 2.232 2.412q.9 1.332 1.152 2.916.072.396 0 .54-.072.108-.324.144l-3.348.216q-.216.036-.288-.072a1.4 1.4 0 0 1-.144-.324q-.468-2.16-1.98-3.528t-3.852-1.368q-3.42 0-5.292 2.592-1.836 2.592-1.836 7.92 0 5.256 1.8 7.848 1.836 2.592 5.472 2.592 2.412 0 4.032-1.152 1.656-1.188 2.7-3.852.108-.252.54-.18l2.556.612a.6.6 0 0 1 .216.144q.108.108.036.468a8.3 8.3 0 0 1-.828 1.944 12 12 0 0 1-1.44 1.98 10.3 10.3 0 0 1-2.052 1.692q-1.188.756-2.7 1.224-1.476.432-3.24.432-3.636 0-6.264-1.692-2.592-1.692-3.996-4.788t-1.404-7.308q0-4.248 1.404-7.308t3.996-4.68q2.592-1.656 6.156-1.656m22.749 27.432q-2.772 0-4.86-1.224a8.65 8.65 0 0 1-3.24-3.456q-1.152-2.232-1.152-5.112 0-2.988 1.188-5.22 1.188-2.268 3.276-3.528 2.124-1.26 4.824-1.26 2.808 0 4.86 1.296 2.088 1.26 3.24 3.528 1.152 2.232 1.152 5.148 0 2.88-1.188 5.112a8.65 8.65 0 0 1-3.24 3.456q-2.088 1.26-4.86 1.26m.072-2.7q1.692 0 2.88-.864t1.8-2.448q.648-1.62.648-3.888t-.648-3.888q-.612-1.62-1.836-2.484-1.188-.9-2.88-.9t-2.916.9q-1.188.864-1.836 2.484t-.648 3.888.648 3.888q.648 1.584 1.836 2.448 1.224.864 2.952.864M243.475 85q-.576 0-.576-.576V66.46q0-.54.468-.54h2.844q.432 0 .432.468v1.98q0 .18.072.252.108.036.288-.144a25 25 0 0 1 2.124-1.548 7.8 7.8 0 0 1 2.052-1.008 6.9 6.9 0 0 1 2.268-.36q2.736 0 4.248 1.512t1.512 3.996v13.284q0 .648-.612.648h-2.664q-.288 0-.432-.108-.108-.144-.108-.468v-12.6q0-1.584-.828-2.484t-2.556-.9q-.972 0-1.8.324a6.3 6.3 0 0 0-1.656.9q-.828.576-1.836 1.476v13.248q0 .612-.684.612zm36.224-19.08q.288 0 .396.18t0 .432l-7.272 17.856q-.216.612-.936.612h-1.692q-.72 0-.972-.576l-7.236-17.856q-.072-.288.036-.468.144-.18.432-.18h2.988a.62.62 0 0 1 .396.144q.18.108.216.324l5.184 13.032q.252.684.576-.036l5.112-13.032a1 1 0 0 1 .252-.288.54.54 0 0 1 .396-.144zm5.772 10.872q0 1.62.756 2.952a6.2 6.2 0 0 0 2.088 2.088q1.332.756 2.952.756 1.656 0 2.952-.684t2.376-2.124q.108-.144.216-.144.108-.036.324.072l1.836.864q.396.18.072.576-1.008 1.476-2.232 2.412a7.8 7.8 0 0 1-2.664 1.368q-1.476.432-3.276.432-2.736 0-4.824-1.224t-3.312-3.42q-1.188-2.196-1.188-5.04 0-3.132 1.224-5.364 1.224-2.268 3.312-3.492 2.124-1.26 4.716-1.26 2.664 0 4.644 1.188 2.016 1.152 3.132 3.348t1.116 5.328a2.1 2.1 0 0 1-.072.576q-.072.216-.468.216h-13.32q-.18 0-.288.18a.9.9 0 0 0-.072.396m9.828-2.844q.396 0 .504-.108t.108-.396a5.7 5.7 0 0 0-.612-2.592 4.84 4.84 0 0 0-1.692-1.98q-1.08-.756-2.7-.756-1.692 0-2.916.828a5.27 5.27 0 0 0-1.836 2.124 6.7 6.7 0 0 0-.612 2.844zM304.084 85q-.288 0-.432-.144t-.144-.432V66.46q0-.54.468-.54h2.772q.432 0 .432.468v2.268q0 .216.108.252.144.036.288-.144.9-1.08 1.8-1.764.936-.72 1.872-1.08a5.2 5.2 0 0 1 1.872-.36q1.26 0 1.26.504v2.808q0 .432-.396.36-.432-.108-.936-.144a13 13 0 0 0-.972-.036q-.756 0-1.584.324a6 6 0 0 0-1.548.9 5.6 5.6 0 0 0-1.152 1.224q-.468.684-.468 1.404v11.484q0 .612-.684.612zm19.674-16.344q-.324 0-.324.36v10.548q0 1.548.576 2.124.576.54 1.764.54h2.304q.216 0 .324.144a.4.4 0 0 1 .108.288v1.548q0 .468-.54.612a12 12 0 0 1-1.152.108L325.45 85h-1.152q-2.34 0-3.528-1.08-1.152-1.116-1.152-3.42V69.088q0-.432-.36-.432h-2.7q-.468 0-.468-.432v-1.908q0-.396.432-.396h2.88q.288 0 .288-.324l.432-5.652q.036-.504.432-.504h2.484q.468 0 .468.576v5.58q0 .324.324.324h4.32q.432 0 .432.396v1.908q0 .432-.504.432z" fill="#5672F4"/>
  </g>
  <defs>
    <clipPath id="a">
      <path fill="#fff" d="M0 0h340v150H0z"/>
    </clipPath>
  </defs>
</svg>
